<?xml version="1.0" encoding="UTF-8"?>
<svg id="Capa_1" xmlns="http://www.w3.org/2000/svg" version="1.1" viewBox="0 0 512 512">
  <!-- Generator: Adobe Illustrator 29.5.0, SVG Export Plug-In . SVG Version: 2.1.0 Build 137)  -->
  <defs>
    <style>
      .st0 {
        fill: #965285;
      }

      .st1 {
        fill: #1dd1bd;
      }

      .st2 {
        fill: #f8be3b;
      }
    </style>
  </defs>
  <path class="st0" d="M439.6,127.59l-48.8-1.09-21.12-29.98c-17.55-24.92-46.12-39.73-76.58-39.73h-90.14c-30.46,0-59.03,14.81-76.57,39.73l-21.12,29.98-48.8,1.09c-9.99.22-17.37,9.38-15.49,19.17l.71,3.63c1.63,8.39,7.85,15.13,16.1,17.41l27.16,7.49c-9.72,16.06-14.85,34.48-14.85,53.24v42.63c0,2.52.26,4.96.77,7.32,1.03-.44,2.06-.87,3.09-1.33l4.03-1.76c18.22-8.01,37.06-16.32,61.7-16.32,27.48,0,56.79,10.43,92.24,32.83,4.16,2.58,15.07,8.98,29.15,14.34h129.77c19.37,0,35.08-15.7,35.08-35.08v-42.63c0-18.76-5.14-37.18-14.85-53.24l27.16-7.49c8.25-2.28,14.47-9.02,16.1-17.41l.71-3.63c1.88-9.79-5.49-18.96-15.49-19.17ZM165.48,223.71l-1.33,8.86h-56.15v-8.86c0-5.63,2.3-10.67,5.97-14.3.46-.46.93-.89,1.43-1.29.99-.81,2.06-1.53,3.21-2.14.85-.48,1.75-.87,2.66-1.19,3.09-1.15,6.54-1.53,10.07-.95l22.27,3.61c7.75,1.27,13.03,8.51,11.88,16.26ZM137.64,155.9c-5.25,0-8.47-5.79-5.69-10.25l21.85-35.23c10.15-16.4,28.08-26.35,47.35-26.35h93.79c19.27,0,37.2,9.95,47.35,26.35l21.85,35.23c2.78,4.46-.44,10.25-5.69,10.25h-220.8ZM388.09,232.57h-56.15l-1.33-8.86c-1.15-7.75,4.12-14.99,11.88-16.26l22.27-3.61c12.23-1.98,23.34,7.48,23.34,19.87v8.86Z"/>
  <path class="st0" d="M9.81,311.99s36.07-.91,72.14-16.67c36.07-15.76,66.99-32.43,139.43,13.34,16.06,10,40.92,21.52,66.08,24.85,25.16,3.33,34.86,13.94,33.04,27.58-1.82,13.64-13.03,22.13-39.4,21.82-26.37-.3-95.44-26.39-99.99-14.97-6.91,17.37,68.54,34.67,93.09,35.58,19.65.73,69.56-6.59,64.11-53.42,0,0,66.45-15.99,107.68-48.72,41.22-32.73,58.04-7.54,56.07.61-1.43,5.9-3.49,21.07-37.13,47.21-33.64,26.14-129.12,110.25-201.41,105.86-55.6-3.38-96.08-22.13-131.55-29.4-54.46-11.17-122.15-2.73-122.15-2.73v-110.93Z"/>
  <path class="st2" d="M164.16,232.57h-56.15v-8.86c0-5.63,2.3-10.67,5.97-14.3.46-.46.93-.89,1.43-1.29.99-.81,2.06-1.53,3.21-2.14.85-.48,1.74-.87,2.66-1.19,3.09-1.15,6.54-1.53,10.07-.95l22.27,3.61c7.75,1.27,13.03,8.51,11.88,16.26l-1.33,8.86Z"/>
  <path class="st1" d="M131.96,145.65l21.85-35.23c10.15-16.4,28.08-26.35,47.35-26.35h93.79c19.27,0,37.2,9.95,47.35,26.35l21.85,35.23c2.78,4.46-.44,10.25-5.69,10.25h-220.8c-5.25,0-8.47-5.79-5.69-10.25Z"/>
  <path class="st2" d="M364.76,203.84c12.23-1.98,23.34,7.47,23.34,19.87v8.86h-56.15l-1.33-8.86c-1.15-7.75,4.12-14.99,11.88-16.26l22.27-3.61Z"/>
</svg>